<svg width="160" height="160" viewBox="0 0 160 160" fill="none" xmlns="http://www.w3.org/2000/svg">
<path d="M16.0924 32.4211C15.0966 32.8342 14.0746 33.3645 13.5274 34.2939C12.9479 35.2758 13.0172 36.4951 13.1251 37.6311C14.0654 47.4839 16.5425 57.9625 12.265 66.8874C10.1887 71.2173 6.71587 74.687 3.95363 78.6192C1.1914 82.5514 -0.894152 87.4608 0.388314 92.0866C1.9544 97.739 7.79949 100.873 11.7394 105.223C14.3182 108.067 16.1263 111.522 18.5324 114.514C20.9386 117.506 24.2357 120.142 28.0769 120.318C33.6014 120.572 38.0962 115.801 43.5128 114.696C49.0619 113.565 54.6496 116.444 59.149 119.891C63.6484 123.337 67.7409 127.513 72.9833 129.665C78.7729 132.043 85.2993 131.68 91.3941 133.109C96.9432 134.411 102.052 137.181 107.561 138.658C113.07 140.134 119.527 140.045 123.795 136.273C129.358 131.341 128.92 122.554 132.473 116.03C135.773 109.967 142.233 106.348 146.582 100.988C154.406 91.3421 154.15 76.5984 147.507 66.1074C140.863 55.6165 128.829 49.2643 116.524 47.6103C110.975 46.8658 105.261 46.9675 99.9259 45.2735C85.6461 40.7417 77.1482 24.5043 62.5694 21.1255C53.3024 18.9814 44.2897 22.6947 36.396 27.265C29.5444 31.2327 23.223 29.4631 16.0924 32.4211Z" fill="#EFF2F4"/>
<path d="M80.5 137C111.704 137 137 111.48 137 80C137 48.5198 111.704 23 80.5 23C49.2959 23 24 48.5198 24 80C24 111.48 49.2959 137 80.5 137Z" fill="url(#paint0_linear)"/>
<path d="M80.4534 134.63C110.76 134.63 135.328 110.062 135.328 79.7556C135.328 49.4491 110.76 24.8809 80.4534 24.8809C50.1469 24.8809 25.5786 49.4491 25.5786 79.7556C25.5786 110.062 50.1469 134.63 80.4534 134.63Z" fill="#5D6482"/>
<path d="M80.4534 123.378C104.545 123.378 124.076 103.847 124.076 79.7552C124.076 55.6632 104.545 36.1328 80.4534 36.1328C56.3614 36.1328 36.8311 55.6632 36.8311 79.7552C36.8311 103.847 56.3614 123.378 80.4534 123.378Z" fill="#EFF2F4"/>
<g opacity="0.1">
<path opacity="0.1" d="M80.4529 84.9966C83.0068 84.9966 85.0772 82.9262 85.0772 80.3723C85.0772 77.8184 83.0068 75.748 80.4529 75.748C77.899 75.748 75.8286 77.8184 75.8286 80.3723C75.8286 82.9262 77.899 84.9966 80.4529 84.9966Z" fill="black"/>
</g>
<path d="M80 80V49.5" stroke="#CBCCD0" stroke-width="3"/>
<path d="M80 80L62 71.5" stroke="#535461" stroke-width="3"/>
<path d="M80 80L62 71.5" stroke="#535461" stroke-width="3"/>
<path d="M80 80H112.5" stroke="#535461" stroke-width="3"/>
<path d="M80 80H112.5" stroke="#535461" stroke-width="3"/>
<path d="M80 85C82.7614 85 85 82.7614 85 80C85 77.2386 82.7614 75 80 75C77.2386 75 75 77.2386 75 80C75 82.7614 77.2386 85 80 85Z" fill="#535461"/>
<g opacity="0.1">
<path opacity="0.1" d="M40.2188 84.996C40.2188 60.9035 59.7487 41.3737 83.8412 41.3737C90.6033 41.3677 97.274 42.9363 103.325 45.9553C109.376 48.9743 114.64 53.3607 118.702 58.7671C111.279 45.2765 96.9433 36.1328 80.45 36.1328C56.3575 36.1328 36.8277 55.6627 36.8277 79.7552C36.8135 89.2198 39.8917 98.4299 45.5938 105.984C42.0576 99.5546 40.2084 92.3338 40.2188 84.996Z" fill="black"/>
</g>
<g opacity="0.1">
<path opacity="0.1" d="M102.664 93.1718C102.664 93.1718 102.338 93.8238 101.893 94.6069C101.212 94.2432 100.555 93.8386 99.9229 93.3953L99.7873 93.2998L99.7148 93.2473L100.486 92.3965L102.664 93.1718Z" fill="black"/>
</g>
<g opacity="0.1">
<path d="M97.5939 94.0163C97.3942 94.2065 97.2316 94.4323 97.1146 94.6822C96.0186 94.1874 94.8672 93.5631 94.4479 93.3319L94.4155 93.3149C94.6245 93.0516 94.8641 92.8141 95.1292 92.6074C95.1292 92.6074 98.1581 93.523 97.5939 94.0163Z" fill="black"/>
</g>
<g opacity="0.1">
<path opacity="0.1" d="M111.202 54.9835C110.684 55.1746 108.678 55.9839 108.456 57.1415C108.319 56.6258 108.216 56.1016 108.148 55.5723L110.614 54.2344C110.848 54.4517 111.046 54.7045 111.202 54.9835Z" fill="black"/>
</g>
<g opacity="0.1">
<path opacity="0.1" d="M95.9045 55.0809C95.7121 55.6317 95.4908 56.1719 95.2417 56.6994C95.1461 56.0027 94.7531 54.2208 93.1978 53.6458C93.506 53.225 93.7218 52.9707 93.7218 52.9707L95.9045 55.0809Z" fill="black"/>
</g>
<g opacity="0.1">
<path opacity="0.1" d="M106.747 72.4682C106.747 72.4682 103.547 72.2139 100.771 72.0937L100.492 72.0813C100.097 72.0659 99.7209 72.0536 99.3525 72.0443C96.6581 71.9796 93.6107 71.0378 93.0928 70.8729C93.2871 70.5718 93.497 70.2811 93.7217 70.002L97.9467 70.9268C97.9467 70.9268 98.6126 71.1395 100.092 71.7946L97.6646 70.002L105.063 71.3399C105.063 71.3399 105.321 71.3075 106.682 72.069L106.747 72.4682Z" fill="black"/>
</g>
<g opacity="0.1">
<path opacity="0.1" d="M97.9284 45.0901C98.4941 45.0901 98.938 44.4905 99.5037 44.5213C99.7966 44.5367 100.048 44.7232 100.29 44.8912C101.204 45.5245 102.222 45.9939 103.297 46.2785C103.715 46.3895 104.157 46.4727 104.577 46.371C104.996 46.2693 105.389 45.9394 105.437 45.5094C105.448 45.3198 105.423 45.1298 105.363 44.9498C104.888 43.2962 103.814 41.8789 102.351 40.9745C101.765 40.6153 101.05 40.341 100.401 40.566C99.8151 40.7679 99.4375 41.3167 99.0136 41.7683C98.6941 42.1065 98.3313 42.4009 97.9346 42.6438C97.6263 42.8304 97.1639 42.9521 96.9866 43.2943C96.6521 43.9325 97.1777 45.0839 97.9284 45.0901Z" fill="black"/>
</g>
<path opacity="0.05" d="M112.556 58.918C112.556 58.918 111.994 60.2559 112.274 60.6783L112.556 58.918Z" fill="black"/>
<defs>
<linearGradient id="paint0_linear" x1="80.5" y1="23" x2="80.5" y2="137" gradientUnits="userSpaceOnUse">
<stop stop-color="#18214D" stop-opacity="0"/>
<stop offset="1" stop-color="#18214D" stop-opacity="0.2"/>
</linearGradient>
</defs>
</svg>
